# xmcd CD database file
#
# Track frame offsets:
#	150
#	16163
#	31295
#	45650
#	58658
#	75994
#	87756
#	98729
#	109209
#	124046
#	140694
#	153688
#	163999
#
# Disc length: 2329 seconds
#
# Revision: 0
# Processed by: cddbd v1.5.2PL0 Copyright (c) Steve Scherf et al.
# Submitted via: CDex 1.70beta2
#
DISCID=a209170d
DTITLE=CF - Country Favorites - D1
DYEAR=1900
DGENRE=Country
TTITLE0=Shake That Sugar Tree - Pam Tillis
TTITLE1=I'd Be Better Off In A Pine Box - Doug Stone
TTITLE2=Woke Up In Love - Exile
TTITLE3=I Tell It Like It Used To Be - T. Graham Brown
TTITLE4=Doo-Wah Days - Mickey Gilley
TTITLE5=Night Life - Willie Nelson
TTITLE6=Silkver Wings - Merle Haggard
TTITLE7=Only Daddy That'll Walk the Line - Waylon Jennings
TTITLE8=Queen of Hearts - Juice Newton
TTITLE9=Last Cheater's Waltz - T. G. Sheppard
TTITLE10=One Love At A Time - Tayna Tucker
TTITLE11=Hello Walls - Faron Young
TTITLE12=It Wasn't God Who Made Honky Tonk Angles - Dolly Parton
EXTD=
EXTT0=
EXTT1=
EXTT2=
EXTT3=
EXTT4=
EXTT5=
EXTT6=
EXTT7=
EXTT8=
EXTT9=
EXTT10=
EXTT11=
EXTT12=
PLAYORDER=
